<?xml version="1.0" standalone="no"?>
<!DOCTYPE svg PUBLIC "-//W3C//DTD SVG 20010904//EN"
 "http://www.w3.org/TR/2001/REC-SVG-20010904/DTD/svg10.dtd">
<svg version="1.0" xmlns="http://www.w3.org/2000/svg"
 width="512.000000pt" height="512.000000pt" viewBox="0 0 512.000000 512.000000"
 preserveAspectRatio="xMidYMid meet">

<g transform="translate(0.000000,512.000000) scale(0.100000,-0.100000)"
fill="#000000" stroke="none">
<path d="M1722 5005 c-52 -44 -51 -63 27 -267 39 -102 71 -188 71 -191 0 -4
-52 -7 -115 -7 -126 0 -175 -13 -195 -51 -27 -50 -4 -246 42 -364 16 -41 17
-51 6 -58 -450 -259 -783 -630 -957 -1068 l-22 -57 -118 -4 c-108 -4 -124 -7
-183 -36 -171 -84 -254 -271 -199 -450 25 -82 66 -141 136 -195 51 -38 154
-77 205 -77 l27 0 6 -117 c32 -595 346 -1175 833 -1543 842 -636 2014 -557
2760 185 338 337 547 759 609 1228 8 65 15 146 15 181 l0 63 48 6 c137 16 265
111 312 232 33 83 34 206 1 287 -31 80 -106 159 -188 200 -60 29 -75 32 -184
36 l-118 4 -22 57 c-147 372 -441 733 -780 957 l-116 78 -7 66 c-9 96 -49 230
-102 337 -140 288 -399 491 -724 571 -53 13 -151 16 -551 19 l-486 4 -31 -26z
m1066 -203 c41 -13 102 -35 137 -51 272 -124 467 -397 493 -691 12 -142 -12
-217 -87 -265 -74 -47 -76 -46 -89 53 -25 189 -83 305 -216 437 -96 95 -175
146 -296 189 -128 46 -212 58 -459 65 l-234 6 -54 140 c-29 77 -53 141 -53
143 0 2 177 2 393 0 369 -4 396 -6 465 -26z m-313 -473 c301 -36 507 -203 560
-455 8 -38 15 -79 15 -91 l0 -23 -383 0 c-433 0 -471 5 -610 77 -108 56 -231
182 -285 293 -41 82 -74 187 -65 203 7 11 667 8 768 -4z m-732 -502 c113 -114
219 -180 377 -233 l85 -29 555 0 555 0 66 31 c80 38 136 87 180 157 18 29 34
54 35 56 2 2 34 -19 73 -45 419 -293 713 -777 785 -1293 20 -141 20 -394 1
-530 -91 -642 -499 -1194 -1085 -1469 -525 -247 -1128 -240 -1655 18 -570 280
-962 823 -1051 1457 -24 174 -15 474 20 638 112 531 432 980 901 1266 44 27
81 49 83 49 1 0 35 -33 75 -73z m-1237 -1114 c-3 -16 -15 -86 -27 -158 -12
-71 -23 -140 -25 -152 -3 -16 -11 -23 -27 -23 -37 0 -110 43 -134 79 -84 126
6 281 165 281 54 0 54 0 48 -27z m4254 5 c98 -50 128 -167 67 -259 -24 -36
-97 -79 -134 -79 -16 0 -24 7 -27 23 -2 12 -13 81 -25 152 -12 72 -24 142 -27
158 -6 27 -6 27 48 27 36 0 68 -7 98 -22z"/>
<path d="M1358 3073 c-28 -18 -48 -52 -48 -84 0 -11 -10 -23 -24 -29 -40 -15
-108 -82 -127 -125 -15 -32 -19 -65 -19 -160 0 -105 3 -126 24 -171 41 -89
135 -144 246 -144 25 0 51 -5 58 -12 7 -7 12 -44 12 -94 0 -95 -11 -114 -66
-114 -52 0 -71 15 -79 60 -14 84 -108 119 -166 61 -24 -25 -29 -38 -29 -78 0
-89 76 -201 148 -219 16 -5 22 -13 22 -36 0 -45 48 -88 98 -88 53 0 90 30 98
80 5 28 12 40 28 44 37 10 93 64 120 118 23 46 26 64 26 161 0 142 -12 179
-75 242 -55 55 -102 75 -179 75 -80 0 -86 7 -86 108 0 55 4 92 12 100 7 7 33
12 58 12 51 0 70 -13 70 -46 0 -31 41 -86 73 -97 37 -12 74 -2 103 30 62 67
-3 236 -111 287 -27 13 -35 23 -35 42 0 16 -13 39 -34 60 -38 38 -75 44 -118
17z"/>
<path d="M3644 3056 c-21 -21 -34 -44 -34 -60 0 -19 -8 -29 -35 -42 -47 -22
-109 -93 -123 -142 -7 -22 -12 -89 -12 -149 0 -97 3 -115 26 -161 45 -90 134
-142 244 -142 25 0 51 -5 58 -12 8 -8 12 -45 12 -100 0 -76 -2 -89 -19 -98
-48 -25 -121 -3 -121 37 0 29 -31 80 -56 92 -44 20 -83 13 -115 -18 -24 -25
-29 -38 -29 -78 0 -87 77 -201 146 -219 16 -4 23 -16 28 -44 8 -50 45 -80 98
-80 50 0 98 43 98 88 0 23 6 31 23 36 39 10 99 68 123 120 21 45 24 66 24 171
0 138 -13 176 -76 237 -47 45 -108 68 -180 68 -75 0 -84 12 -84 114 0 50 5 87
12 94 16 16 105 16 115 0 4 -7 15 -33 23 -58 27 -81 108 -103 166 -45 19 19
24 34 24 77 0 30 -9 71 -19 93 -19 43 -87 110 -127 125 -15 6 -24 17 -24 31 0
30 -29 75 -57 88 -42 19 -73 13 -109 -23z"/>
<path d="M2074 2151 c-44 -27 -59 -76 -45 -141 48 -223 296 -330 485 -209 l46
29 46 -29 c191 -122 443 -11 485 214 13 71 -5 118 -55 141 -31 15 -39 16 -71
3 -41 -16 -61 -45 -70 -102 -14 -84 -105 -132 -174 -91 -34 20 -61 68 -61 108
0 14 -13 40 -29 58 -24 27 -36 33 -71 33 -35 0 -47 -6 -71 -33 -16 -18 -29
-44 -29 -58 0 -40 -27 -88 -61 -108 -69 -41 -160 7 -174 91 -10 57 -27 85 -62
100 -42 17 -52 17 -89 -6z"/>
</g>
</svg>
